# xmcd
#
# Track frame offsets:
# 150
# 32735
# 62135
# 91448
# 114535
# 137431
# 166336
# 197914
# 228832
# 265702
# 294312
#
# Disc length: 4384 seconds
#
#
# Revision: 0
# Processed by: cddbd v1.5.1PL0 Copyright (c) Steve Scherf et al.
# Submitted via: FreeRIP 2.91 
#
DISCID=93111e0b
DTITLE=Hein Kraller Trio - acoustic fireball
DYEAR=2000
DGENRE=acoustic
TTITLE0=Nobody needs this salsa
TTITLE1=Old fashioned hat
TTITLE2=Waterfall
TTITLE3=Jack
TTITLE4=No breack
TTITLE5=Up swing twister
TTITLE6=Spring
TTITLE7=Cinema
TTITLE8=Thirteen
TTITLE9=In the shadow of a stack
TTITLE10=free way
EXTD=
EXTT0=
EXTT1=
EXTT2=
EXTT3=
EXTT4=
EXTT5=
EXTT6=
EXTT7=
EXTT8=
EXTT9=
EXTT10=
PLAYORDER=
